<svg width="55" height="26" viewBox="0 0 55 26" fill="none" xmlns="http://www.w3.org/2000/svg">
<rect width="55" height="26" rx="8" fill="#B7B7B7"/>
<path d="M15.6602 16V10.3125H17.5195C18.1367 10.3125 18.6003 10.4401 18.9102 10.6953C19.2227 10.9505 19.3789 11.3281 19.3789 11.8281C19.3789 12.0938 19.3034 12.3294 19.1523 12.5352C19.0013 12.7383 18.7956 12.8958 18.5352 13.0078C18.8424 13.0938 19.0846 13.2578 19.2617 13.5C19.4414 13.7396 19.5312 14.026 19.5312 14.3594C19.5312 14.8698 19.3659 15.2708 19.0352 15.5625C18.7044 15.8542 18.237 16 17.6328 16H15.6602ZM16.4102 13.3398V15.3867H17.6484C17.9974 15.3867 18.2721 15.2969 18.4727 15.1172C18.6758 14.9349 18.7773 14.6849 18.7773 14.3672C18.7773 13.6823 18.4049 13.3398 17.6602 13.3398H16.4102ZM16.4102 12.7383H17.543C17.8711 12.7383 18.1328 12.6562 18.3281 12.4922C18.526 12.3281 18.625 12.1055 18.625 11.8242C18.625 11.5117 18.5339 11.2852 18.3516 11.1445C18.1693 11.0013 17.8919 10.9297 17.5195 10.9297H16.4102V12.7383ZM23.1406 15.582C22.8594 15.9128 22.4466 16.0781 21.9023 16.0781C21.4518 16.0781 21.1081 15.9479 20.8711 15.6875C20.6367 15.4245 20.5182 15.0365 20.5156 14.5234V11.7734H21.2383V14.5039C21.2383 15.1445 21.4987 15.4648 22.0195 15.4648C22.5716 15.4648 22.9388 15.2591 23.1211 14.8477V11.7734H23.8438V16H23.1562L23.1406 15.582ZM25.9258 10.75V11.7734H26.7148V12.332H25.9258V14.9531C25.9258 15.1224 25.9609 15.25 26.0312 15.3359C26.1016 15.4193 26.2214 15.4609 26.3906 15.4609C26.474 15.4609 26.5885 15.4453 26.7344 15.4141V16C26.5443 16.0521 26.3594 16.0781 26.1797 16.0781C25.8568 16.0781 25.6133 15.9805 25.4492 15.7852C25.2852 15.5898 25.2031 15.3125 25.2031 14.9531V12.332H24.4336V11.7734H25.2031V10.75H25.9258ZM28.543 10.75V11.7734H29.332V12.332H28.543V14.9531C28.543 15.1224 28.5781 15.25 28.6484 15.3359C28.7188 15.4193 28.8385 15.4609 29.0078 15.4609C29.0911 15.4609 29.2057 15.4453 29.3516 15.4141V16C29.1615 16.0521 28.9766 16.0781 28.7969 16.0781C28.474 16.0781 28.2305 15.9805 28.0664 15.7852C27.9023 15.5898 27.8203 15.3125 27.8203 14.9531V12.332H27.0508V11.7734H27.8203V10.75H28.543ZM29.9102 13.8477C29.9102 13.4336 29.9909 13.0612 30.1523 12.7305C30.3164 12.3997 30.543 12.1445 30.832 11.9648C31.1237 11.7852 31.4557 11.6953 31.8281 11.6953C32.4036 11.6953 32.8685 11.8945 33.2227 12.293C33.5794 12.6914 33.7578 13.2214 33.7578 13.8828V13.9336C33.7578 14.3451 33.6784 14.7148 33.5195 15.043C33.3633 15.3685 33.138 15.6224 32.8438 15.8047C32.5521 15.987 32.2161 16.0781 31.8359 16.0781C31.263 16.0781 30.7982 15.8789 30.4414 15.4805C30.0872 15.082 29.9102 14.5547 29.9102 13.8984V13.8477ZM30.6367 13.9336C30.6367 14.4023 30.7448 14.7786 30.9609 15.0625C31.1797 15.3464 31.4714 15.4883 31.8359 15.4883C32.2031 15.4883 32.4948 15.3451 32.7109 15.0586C32.9271 14.7695 33.0352 14.3659 33.0352 13.8477C33.0352 13.3841 32.9245 13.0091 32.7031 12.7227C32.4844 12.4336 32.1927 12.2891 31.8281 12.2891C31.4714 12.2891 31.1836 12.431 30.9648 12.7148C30.7461 12.9987 30.6367 13.4049 30.6367 13.9336ZM35.3477 11.7734L35.3711 12.3047C35.694 11.8984 36.1159 11.6953 36.6367 11.6953C37.5299 11.6953 37.9805 12.1992 37.9883 13.207V16H37.2656V13.2031C37.263 12.8984 37.1927 12.6732 37.0547 12.5273C36.9193 12.3815 36.707 12.3086 36.418 12.3086C36.1836 12.3086 35.9779 12.3711 35.8008 12.4961C35.6237 12.6211 35.4857 12.7852 35.3867 12.9883V16H34.6641V11.7734H35.3477Z" fill="black"/>
</svg>
