<svg width="90" height="29" viewBox="0 0 90 29" fill="none" xmlns="http://www.w3.org/2000/svg">
<rect width="90" height="29" rx="8" fill="#B7B7B7"/>
<path d="M30.8252 18V10.8906H33.1494C33.9209 10.8906 34.5003 11.0501 34.8877 11.3691C35.2783 11.6882 35.4736 12.1602 35.4736 12.7852C35.4736 13.1172 35.3792 13.4118 35.1904 13.6689C35.0016 13.9229 34.7445 14.1198 34.4189 14.2598C34.8031 14.3672 35.1058 14.5723 35.3271 14.875C35.5518 15.1745 35.6641 15.5326 35.6641 15.9492C35.6641 16.5872 35.4574 17.0885 35.0439 17.4531C34.6305 17.8177 34.0462 18 33.291 18H30.8252ZM31.7627 14.6748V17.2334H33.3105C33.7467 17.2334 34.0902 17.1211 34.3408 16.8965C34.5947 16.6686 34.7217 16.3561 34.7217 15.959C34.7217 15.1029 34.2562 14.6748 33.3252 14.6748H31.7627ZM31.7627 13.9229H33.1787C33.5889 13.9229 33.916 13.8203 34.1602 13.6152C34.4076 13.4102 34.5312 13.1318 34.5312 12.7803C34.5312 12.3896 34.4173 12.1064 34.1895 11.9307C33.9616 11.7516 33.6149 11.6621 33.1494 11.6621H31.7627V13.9229ZM40.1758 17.4775C39.8242 17.891 39.3083 18.0977 38.6279 18.0977C38.0648 18.0977 37.6351 17.9349 37.3389 17.6094C37.0459 17.2806 36.8978 16.7956 36.8945 16.1543V12.7168H37.7979V16.1299C37.7979 16.9307 38.1234 17.3311 38.7744 17.3311C39.4645 17.3311 39.9235 17.0739 40.1514 16.5596V12.7168H41.0547V18H40.1953L40.1758 17.4775ZM43.6572 11.4375V12.7168H44.6436V13.415H43.6572V16.6914C43.6572 16.903 43.7012 17.0625 43.7891 17.1699C43.877 17.2741 44.0267 17.3262 44.2383 17.3262C44.3424 17.3262 44.4857 17.3066 44.668 17.2676V18C44.4303 18.0651 44.1992 18.0977 43.9746 18.0977C43.571 18.0977 43.2666 17.9756 43.0615 17.7314C42.8564 17.4873 42.7539 17.1406 42.7539 16.6914V13.415H41.792V12.7168H42.7539V11.4375H43.6572ZM46.9287 11.4375V12.7168H47.915V13.415H46.9287V16.6914C46.9287 16.903 46.9727 17.0625 47.0605 17.1699C47.1484 17.2741 47.2982 17.3262 47.5098 17.3262C47.6139 17.3262 47.7572 17.3066 47.9395 17.2676V18C47.7018 18.0651 47.4707 18.0977 47.2461 18.0977C46.8424 18.0977 46.5381 17.9756 46.333 17.7314C46.1279 17.4873 46.0254 17.1406 46.0254 16.6914V13.415H45.0635V12.7168H46.0254V11.4375H46.9287ZM48.6377 15.3096C48.6377 14.792 48.7386 14.3265 48.9404 13.9131C49.1455 13.4997 49.4287 13.1807 49.79 12.9561C50.1546 12.7314 50.5697 12.6191 51.0352 12.6191C51.7546 12.6191 52.3356 12.8682 52.7783 13.3662C53.2243 13.8643 53.4473 14.5267 53.4473 15.3535V15.417C53.4473 15.9313 53.348 16.3936 53.1494 16.8037C52.9541 17.2106 52.6725 17.528 52.3047 17.7559C51.9401 17.9837 51.5202 18.0977 51.0449 18.0977C50.3288 18.0977 49.7477 17.8486 49.3018 17.3506C48.859 16.8525 48.6377 16.1934 48.6377 15.373V15.3096ZM49.5459 15.417C49.5459 16.0029 49.681 16.4733 49.9512 16.8281C50.2246 17.1829 50.5892 17.3604 51.0449 17.3604C51.5039 17.3604 51.8685 17.1813 52.1387 16.8232C52.4089 16.4619 52.5439 15.9574 52.5439 15.3096C52.5439 14.7301 52.4056 14.2614 52.1289 13.9033C51.8555 13.542 51.4909 13.3613 51.0352 13.3613C50.5892 13.3613 50.2295 13.5387 49.9561 13.8936C49.6826 14.2484 49.5459 14.7562 49.5459 15.417ZM55.4346 12.7168L55.4639 13.3809C55.8675 12.873 56.3949 12.6191 57.0459 12.6191C58.1624 12.6191 58.7256 13.249 58.7354 14.5088V18H57.832V14.5039C57.8288 14.123 57.7409 13.8415 57.5684 13.6592C57.3991 13.4769 57.1338 13.3857 56.7725 13.3857C56.4795 13.3857 56.2223 13.4639 56.001 13.6201C55.7796 13.7764 55.6071 13.9814 55.4834 14.2354V18H54.5801V12.7168H55.4346Z" fill="black"/>
</svg>
