<svg width="111" height="35" viewBox="0 0 111 35" fill="none" xmlns="http://www.w3.org/2000/svg">
<rect width="111" height="35" rx="8" fill="#4B92FD"/>
<path d="M37.9902 21V12.4688H40.7793C41.7051 12.4688 42.4004 12.6602 42.8652 13.043C43.334 13.4258 43.5684 13.9922 43.5684 14.7422C43.5684 15.1406 43.4551 15.4941 43.2285 15.8027C43.002 16.1074 42.6934 16.3438 42.3027 16.5117C42.7637 16.6406 43.127 16.8867 43.3926 17.25C43.6621 17.6094 43.7969 18.0391 43.7969 18.5391C43.7969 19.3047 43.5488 19.9062 43.0527 20.3438C42.5566 20.7812 41.8555 21 40.9492 21H37.9902ZM39.1152 17.0098V20.0801H40.9727C41.4961 20.0801 41.9082 19.9453 42.209 19.6758C42.5137 19.4023 42.666 19.0273 42.666 18.5508C42.666 17.5234 42.1074 17.0098 40.9902 17.0098H39.1152ZM39.1152 16.1074H40.8145C41.3066 16.1074 41.6992 15.9844 41.9922 15.7383C42.2891 15.4922 42.4375 15.1582 42.4375 14.7363C42.4375 14.2676 42.3008 13.9277 42.0273 13.7168C41.7539 13.502 41.3379 13.3945 40.7793 13.3945H39.1152V16.1074ZM49.2109 20.373C48.7891 20.8691 48.1699 21.1172 47.3535 21.1172C46.6777 21.1172 46.1621 20.9219 45.8066 20.5312C45.4551 20.1367 45.2773 19.5547 45.2734 18.7852V14.6602H46.3574V18.7559C46.3574 19.7168 46.748 20.1973 47.5293 20.1973C48.3574 20.1973 48.9082 19.8887 49.1816 19.2715V14.6602H50.2656V21H49.2344L49.2109 20.373ZM53.3887 13.125V14.6602H54.5723V15.498H53.3887V19.4297C53.3887 19.6836 53.4414 19.875 53.5469 20.0039C53.6523 20.1289 53.832 20.1914 54.0859 20.1914C54.2109 20.1914 54.3828 20.168 54.6016 20.1211V21C54.3164 21.0781 54.0391 21.1172 53.7695 21.1172C53.2852 21.1172 52.9199 20.9707 52.6738 20.6777C52.4277 20.3848 52.3047 19.9688 52.3047 19.4297V15.498H51.1504V14.6602H52.3047V13.125H53.3887ZM57.3145 13.125V14.6602H58.498V15.498H57.3145V19.4297C57.3145 19.6836 57.3672 19.875 57.4727 20.0039C57.5781 20.1289 57.7578 20.1914 58.0117 20.1914C58.1367 20.1914 58.3086 20.168 58.5273 20.1211V21C58.2422 21.0781 57.9648 21.1172 57.6953 21.1172C57.2109 21.1172 56.8457 20.9707 56.5996 20.6777C56.3535 20.3848 56.2305 19.9688 56.2305 19.4297V15.498H55.0762V14.6602H56.2305V13.125H57.3145ZM59.3652 17.7715C59.3652 17.1504 59.4863 16.5918 59.7285 16.0957C59.9746 15.5996 60.3145 15.2168 60.748 14.9473C61.1855 14.6777 61.6836 14.543 62.2422 14.543C63.1055 14.543 63.8027 14.8418 64.334 15.4395C64.8691 16.0371 65.1367 16.832 65.1367 17.8242V17.9004C65.1367 18.5176 65.0176 19.0723 64.7793 19.5645C64.5449 20.0527 64.207 20.4336 63.7656 20.707C63.3281 20.9805 62.8242 21.1172 62.2539 21.1172C61.3945 21.1172 60.6973 20.8184 60.1621 20.2207C59.6309 19.623 59.3652 18.832 59.3652 17.8477V17.7715ZM60.4551 17.9004C60.4551 18.6035 60.6172 19.168 60.9414 19.5938C61.2695 20.0195 61.707 20.2324 62.2539 20.2324C62.8047 20.2324 63.2422 20.0176 63.5664 19.5879C63.8906 19.1543 64.0527 18.5488 64.0527 17.7715C64.0527 17.0762 63.8867 16.5137 63.5547 16.084C63.2266 15.6504 62.7891 15.4336 62.2422 15.4336C61.707 15.4336 61.2754 15.6465 60.9473 16.0723C60.6191 16.498 60.4551 17.1074 60.4551 17.9004ZM67.5215 14.6602L67.5566 15.457C68.041 14.8477 68.6738 14.543 69.4551 14.543C70.7949 14.543 71.4707 15.2988 71.4824 16.8105V21H70.3984V16.8047C70.3945 16.3477 70.2891 16.0098 70.082 15.791C69.8789 15.5723 69.5605 15.4629 69.127 15.4629C68.7754 15.4629 68.4668 15.5566 68.2012 15.7441C67.9355 15.9316 67.7285 16.1777 67.5801 16.4824V21H66.4961V14.6602H67.5215Z" fill="#E5E5E5"/>
</svg>
