<svg width="120" height="74" viewBox="0 0 120 74" fill="none" xmlns="http://www.w3.org/2000/svg">
<g filter="url(#filter0_d)">
<rect x="4" width="112" height="66" rx="5" fill="white"/>
</g>
<path d="M43.4434 28.4688L46.2324 35.4297L49.0215 28.4688H50.4805V37H49.3555V33.6777L49.4609 30.0918L46.6602 37H45.7988L43.0039 30.1094L43.1152 33.6777V37H41.9902V28.4688H43.4434ZM52.0098 33.7715C52.0098 33.1504 52.1309 32.5918 52.373 32.0957C52.6191 31.5996 52.959 31.2168 53.3926 30.9473C53.8301 30.6777 54.3281 30.543 54.8867 30.543C55.75 30.543 56.4473 30.8418 56.9785 31.4395C57.5137 32.0371 57.7812 32.832 57.7812 33.8242V33.9004C57.7812 34.5176 57.6621 35.0723 57.4238 35.5645C57.1895 36.0527 56.8516 36.4336 56.4102 36.707C55.9727 36.9805 55.4688 37.1172 54.8984 37.1172C54.0391 37.1172 53.3418 36.8184 52.8066 36.2207C52.2754 35.623 52.0098 34.832 52.0098 33.8477V33.7715ZM53.0996 33.9004C53.0996 34.6035 53.2617 35.168 53.5859 35.5938C53.9141 36.0195 54.3516 36.2324 54.8984 36.2324C55.4492 36.2324 55.8867 36.0176 56.2109 35.5879C56.5352 35.1543 56.6973 34.5488 56.6973 33.7715C56.6973 33.0762 56.5312 32.5137 56.1992 32.084C55.8711 31.6504 55.4336 31.4336 54.8867 31.4336C54.3516 31.4336 53.9199 31.6465 53.5918 32.0723C53.2637 32.498 53.0996 33.1074 53.0996 33.9004ZM58.877 33.7773C58.877 32.8047 59.1074 32.0234 59.5684 31.4336C60.0293 30.8398 60.6328 30.543 61.3789 30.543C62.1211 30.543 62.709 30.7969 63.1426 31.3047V28H64.2266V37H63.2305L63.1777 36.3203C62.7441 36.8516 62.1406 37.1172 61.3672 37.1172C60.6328 37.1172 60.0332 36.8164 59.5684 36.2148C59.1074 35.6133 58.877 34.8281 58.877 33.8594V33.7773ZM59.9609 33.9004C59.9609 34.6191 60.1094 35.1816 60.4062 35.5879C60.7031 35.9941 61.1133 36.1973 61.6367 36.1973C62.3242 36.1973 62.8262 35.8887 63.1426 35.2715V32.3594C62.8184 31.7617 62.3203 31.4629 61.6484 31.4629C61.1172 31.4629 60.7031 31.668 60.4062 32.0781C60.1094 32.4883 59.9609 33.0957 59.9609 33.9004ZM69.8281 37C69.7656 36.875 69.7148 36.6523 69.6758 36.332C69.1719 36.8555 68.5703 37.1172 67.8711 37.1172C67.2461 37.1172 66.7324 36.9414 66.3301 36.5898C65.9316 36.2344 65.7324 35.7852 65.7324 35.2422C65.7324 34.582 65.9824 34.0703 66.4824 33.707C66.9863 33.3398 67.6934 33.1562 68.6035 33.1562H69.6582V32.6582C69.6582 32.2793 69.5449 31.9785 69.3184 31.7559C69.0918 31.5293 68.7578 31.416 68.3164 31.416C67.9297 31.416 67.6055 31.5137 67.3438 31.709C67.082 31.9043 66.9512 32.1406 66.9512 32.418H65.8613C65.8613 32.1016 65.9727 31.7969 66.1953 31.5039C66.4219 31.207 66.7266 30.9727 67.1094 30.8008C67.4961 30.6289 67.9199 30.543 68.3809 30.543C69.1113 30.543 69.6836 30.7266 70.0977 31.0938C70.5117 31.457 70.7266 31.959 70.7422 32.5996V35.5176C70.7422 36.0996 70.8164 36.5625 70.9648 36.9062V37H69.8281ZM68.0293 36.1738C68.3691 36.1738 68.6914 36.0859 68.9961 35.9102C69.3008 35.7344 69.5215 35.5059 69.6582 35.2246V33.9238H68.8086C67.4805 33.9238 66.8164 34.3125 66.8164 35.0898C66.8164 35.4297 66.9297 35.6953 67.1562 35.8867C67.3828 36.0781 67.6738 36.1738 68.0293 36.1738ZM73.6191 37H72.5352V28H73.6191V37Z" fill="#8D8D8D"/>
<circle cx="14.5" cy="10.5" r="3.5" fill="#4B92FD"/>
<circle cx="14.5" cy="10.5" r="4.5" fill="#4B92FD" fill-opacity="0.24"/>
<path d="M14.666 12H14.3047V9.88672H14.666V12ZM14.2754 9.32617C14.2754 9.26758 14.293 9.2181 14.3281 9.17773C14.3646 9.13737 14.418 9.11719 14.4883 9.11719C14.5586 9.11719 14.612 9.13737 14.6484 9.17773C14.6849 9.2181 14.7031 9.26758 14.7031 9.32617C14.7031 9.38477 14.6849 9.43359 14.6484 9.47266C14.612 9.51172 14.5586 9.53125 14.4883 9.53125C14.418 9.53125 14.3646 9.51172 14.3281 9.47266C14.293 9.43359 14.2754 9.38477 14.2754 9.32617Z" fill="white"/>
<path d="M99 8L104 13" stroke="#8D8D8D" stroke-width="0.5"/>
<path d="M99 13L104 8" stroke="#8D8D8D" stroke-width="0.5"/>
<defs>
<filter id="filter0_d" x="0" y="0" width="120" height="74" filterUnits="userSpaceOnUse" color-interpolation-filters="sRGB">
<feFlood flood-opacity="0" result="BackgroundImageFix"/>
<feColorMatrix in="SourceAlpha" type="matrix" values="0 0 0 0 0 0 0 0 0 0 0 0 0 0 0 0 0 0 127 0"/>
<feOffset dy="4"/>
<feGaussianBlur stdDeviation="2"/>
<feColorMatrix type="matrix" values="0 0 0 0 0 0 0 0 0 0 0 0 0 0 0 0 0 0 0.25 0"/>
<feBlend mode="normal" in2="BackgroundImageFix" result="effect1_dropShadow"/>
<feBlend mode="normal" in="SourceGraphic" in2="effect1_dropShadow" result="shape"/>
</filter>
</defs>
</svg>
