<svg width="76" height="33" viewBox="0 0 76 33" fill="none" xmlns="http://www.w3.org/2000/svg">
<rect y="0.877777" width="76" height="22.8" rx="5" fill="#3F3F3F"/>
<path d="M12.2445 32.1222L6.02833 17.5556L18.4606 17.5556L12.2445 32.1222Z" fill="#3F3F3F"/>
<path d="M25.8848 8.39453H23.1426V16H22.0234V8.39453H19.2871V7.46875H25.8848V8.39453ZM26.1074 12.7715C26.1074 12.1504 26.2285 11.5918 26.4707 11.0957C26.7168 10.5996 27.0566 10.2168 27.4902 9.94727C27.9277 9.67773 28.4258 9.54297 28.9844 9.54297C29.8477 9.54297 30.5449 9.8418 31.0762 10.4395C31.6113 11.0371 31.8789 11.832 31.8789 12.8242V12.9004C31.8789 13.5176 31.7598 14.0723 31.5215 14.5645C31.2871 15.0527 30.9492 15.4336 30.5078 15.707C30.0703 15.9805 29.5664 16.1172 28.9961 16.1172C28.1367 16.1172 27.4395 15.8184 26.9043 15.2207C26.373 14.623 26.1074 13.832 26.1074 12.8477V12.7715ZM27.1973 12.9004C27.1973 13.6035 27.3594 14.168 27.6836 14.5938C28.0117 15.0195 28.4492 15.2324 28.9961 15.2324C29.5469 15.2324 29.9844 15.0176 30.3086 14.5879C30.6328 14.1543 30.7949 13.5488 30.7949 12.7715C30.7949 12.0762 30.6289 11.5137 30.2969 11.084C29.9688 10.6504 29.5312 10.4336 28.9844 10.4336C28.4492 10.4336 28.0176 10.6465 27.6895 11.0723C27.3613 11.498 27.1973 12.1074 27.1973 12.9004ZM32.9512 12.7715C32.9512 12.1504 33.0723 11.5918 33.3145 11.0957C33.5605 10.5996 33.9004 10.2168 34.334 9.94727C34.7715 9.67773 35.2695 9.54297 35.8281 9.54297C36.6914 9.54297 37.3887 9.8418 37.9199 10.4395C38.4551 11.0371 38.7227 11.832 38.7227 12.8242V12.9004C38.7227 13.5176 38.6035 14.0723 38.3652 14.5645C38.1309 15.0527 37.793 15.4336 37.3516 15.707C36.9141 15.9805 36.4102 16.1172 35.8398 16.1172C34.9805 16.1172 34.2832 15.8184 33.748 15.2207C33.2168 14.623 32.9512 13.832 32.9512 12.8477V12.7715ZM34.041 12.9004C34.041 13.6035 34.2031 14.168 34.5273 14.5938C34.8555 15.0195 35.293 15.2324 35.8398 15.2324C36.3906 15.2324 36.8281 15.0176 37.1523 14.5879C37.4766 14.1543 37.6387 13.5488 37.6387 12.7715C37.6387 12.0762 37.4727 11.5137 37.1406 11.084C36.8125 10.6504 36.375 10.4336 35.8281 10.4336C35.293 10.4336 34.8613 10.6465 34.5332 11.0723C34.2051 11.498 34.041 12.1074 34.041 12.9004ZM41.2598 16H40.1758V7H41.2598V16ZM44.4707 8.125V9.66016H45.6543V10.498H44.4707V14.4297C44.4707 14.6836 44.5234 14.875 44.6289 15.0039C44.7344 15.1289 44.9141 15.1914 45.168 15.1914C45.293 15.1914 45.4648 15.168 45.6836 15.1211V16C45.3984 16.0781 45.1211 16.1172 44.8516 16.1172C44.3672 16.1172 44.002 15.9707 43.7559 15.6777C43.5098 15.3848 43.3867 14.9688 43.3867 14.4297V10.498H42.2324V9.66016H43.3867V8.125H44.4707ZM48.1035 16H47.0195V9.66016H48.1035V16ZM46.9316 7.97852C46.9316 7.80273 46.9844 7.6543 47.0898 7.5332C47.1992 7.41211 47.3594 7.35156 47.5703 7.35156C47.7812 7.35156 47.9414 7.41211 48.0508 7.5332C48.1602 7.6543 48.2148 7.80273 48.2148 7.97852C48.2148 8.1543 48.1602 8.30078 48.0508 8.41797C47.9414 8.53516 47.7812 8.59375 47.5703 8.59375C47.3594 8.59375 47.1992 8.53516 47.0898 8.41797C46.9844 8.30078 46.9316 8.1543 46.9316 7.97852ZM55.1992 12.9004C55.1992 13.8652 54.9785 14.6426 54.5371 15.2324C54.0957 15.8223 53.498 16.1172 52.7441 16.1172C51.9746 16.1172 51.3691 15.873 50.9277 15.3848V18.4375H49.8438V9.66016H50.834L50.8867 10.3633C51.3281 9.81641 51.9414 9.54297 52.7266 9.54297C53.4883 9.54297 54.0898 9.83008 54.5312 10.4043C54.9766 10.9785 55.1992 11.7773 55.1992 12.8008V12.9004ZM54.1152 12.7773C54.1152 12.0625 53.9629 11.498 53.6582 11.084C53.3535 10.6699 52.9355 10.4629 52.4043 10.4629C51.748 10.4629 51.2559 10.7539 50.9277 11.3359V14.3652C51.252 14.9434 51.748 15.2324 52.416 15.2324C52.9355 15.2324 53.3477 15.0273 53.6523 14.6172C53.9609 14.2031 54.1152 13.5898 54.1152 12.7773Z" fill="white"/>
</svg>
