<svg width="72" height="26" viewBox="0 0 72 26" fill="none" xmlns="http://www.w3.org/2000/svg">
<rect width="72" height="26" rx="8" fill="#4B92FD"/>
<path d="M18.2422 15.4883C18.5 15.4883 18.7253 15.4102 18.918 15.2539C19.1107 15.0977 19.2174 14.9023 19.2383 14.668H19.9219C19.9089 14.9102 19.8255 15.1406 19.6719 15.3594C19.5182 15.5781 19.3125 15.7526 19.0547 15.8828C18.7995 16.013 18.5286 16.0781 18.2422 16.0781C17.6667 16.0781 17.2083 15.8867 16.8672 15.5039C16.5286 15.1185 16.3594 14.5924 16.3594 13.9258V13.8047C16.3594 13.3932 16.4349 13.0273 16.5859 12.707C16.737 12.3867 16.9531 12.138 17.2344 11.9609C17.5182 11.7839 17.8529 11.6953 18.2383 11.6953C18.7122 11.6953 19.1055 11.8372 19.418 12.1211C19.7331 12.4049 19.901 12.7734 19.9219 13.2266H19.2383C19.2174 12.9531 19.1133 12.7292 18.9258 12.5547C18.7409 12.3776 18.5117 12.2891 18.2383 12.2891C17.8711 12.2891 17.5859 12.4219 17.3828 12.6875C17.1823 12.9505 17.082 13.332 17.082 13.832V13.9688C17.082 14.4557 17.1823 14.8307 17.3828 15.0938C17.5833 15.3568 17.8698 15.4883 18.2422 15.4883ZM21.5195 16H20.7969V10H21.5195V16ZM24.4336 16.0781C23.8607 16.0781 23.3945 15.8906 23.0352 15.5156C22.6758 15.138 22.4961 14.6341 22.4961 14.0039V13.8711C22.4961 13.4518 22.5755 13.0781 22.7344 12.75C22.8958 12.4193 23.1198 12.1615 23.4062 11.9766C23.6953 11.7891 24.0078 11.6953 24.3438 11.6953C24.8932 11.6953 25.3203 11.8763 25.625 12.2383C25.9297 12.6003 26.082 13.1185 26.082 13.793V14.0938H23.2188C23.2292 14.5104 23.3503 14.8477 23.582 15.1055C23.8164 15.3607 24.1133 15.4883 24.4727 15.4883C24.7279 15.4883 24.944 15.4362 25.1211 15.332C25.2982 15.2279 25.4531 15.0898 25.5859 14.918L26.0273 15.2617C25.6732 15.806 25.1419 16.0781 24.4336 16.0781ZM24.3438 12.2891C24.0521 12.2891 23.8073 12.3958 23.6094 12.6094C23.4115 12.8203 23.2891 13.1172 23.2422 13.5H25.3594V13.4453C25.3385 13.0781 25.2396 12.7943 25.0625 12.5938C24.8854 12.3906 24.6458 12.2891 24.3438 12.2891ZM29.5312 16C29.4896 15.9167 29.4557 15.7682 29.4297 15.5547C29.0938 15.9036 28.6927 16.0781 28.2266 16.0781C27.8099 16.0781 27.4674 15.9609 27.1992 15.7266C26.9336 15.4896 26.8008 15.1901 26.8008 14.8281C26.8008 14.388 26.9674 14.0469 27.3008 13.8047C27.6367 13.5599 28.1081 13.4375 28.7148 13.4375H29.418V13.1055C29.418 12.8529 29.3424 12.6523 29.1914 12.5039C29.0404 12.3529 28.8177 12.2773 28.5234 12.2773C28.2656 12.2773 28.0495 12.3424 27.875 12.4727C27.7005 12.6029 27.6133 12.7604 27.6133 12.9453H26.8867C26.8867 12.7344 26.9609 12.5312 27.1094 12.3359C27.2604 12.138 27.4635 11.9818 27.7188 11.8672C27.9766 11.7526 28.2591 11.6953 28.5664 11.6953C29.0534 11.6953 29.4349 11.8177 29.7109 12.0625C29.987 12.3047 30.1302 12.6393 30.1406 13.0664V15.0117C30.1406 15.3997 30.1901 15.7083 30.2891 15.9375V16H29.5312ZM28.332 15.4492C28.5586 15.4492 28.7734 15.3906 28.9766 15.2734C29.1797 15.1562 29.3268 15.0039 29.418 14.8164V13.9492H28.8516C27.9661 13.9492 27.5234 14.2083 27.5234 14.7266C27.5234 14.9531 27.599 15.1302 27.75 15.2578C27.901 15.3854 28.0951 15.4492 28.332 15.4492ZM33.3164 12.4219C33.207 12.4036 33.0885 12.3945 32.9609 12.3945C32.487 12.3945 32.1654 12.5964 31.9961 13V16H31.2734V11.7734H31.9766L31.9883 12.2617C32.2253 11.8841 32.5612 11.6953 32.9961 11.6953C33.1367 11.6953 33.2435 11.7135 33.3164 11.75V12.4219ZM39.5469 13.9336C39.5469 14.5794 39.3984 15.099 39.1016 15.4922C38.8047 15.8828 38.4062 16.0781 37.9062 16.0781C37.3724 16.0781 36.9596 15.8893 36.668 15.5117L36.6328 16H35.9688V10H36.6914V12.2383C36.9831 11.8763 37.3854 11.6953 37.8984 11.6953C38.4115 11.6953 38.8138 11.8893 39.1055 12.2773C39.3997 12.6654 39.5469 13.1966 39.5469 13.8711V13.9336ZM38.8242 13.8516C38.8242 13.3594 38.7292 12.9792 38.5391 12.7109C38.349 12.4427 38.0755 12.3086 37.7188 12.3086C37.2422 12.3086 36.8997 12.5299 36.6914 12.9727V14.8008C36.9128 15.2435 37.2578 15.4648 37.7266 15.4648C38.0729 15.4648 38.3424 15.3307 38.5352 15.0625C38.7279 14.7943 38.8242 14.3906 38.8242 13.8516ZM40.2695 13.8477C40.2695 13.4336 40.3503 13.0612 40.5117 12.7305C40.6758 12.3997 40.9023 12.1445 41.1914 11.9648C41.4831 11.7852 41.8151 11.6953 42.1875 11.6953C42.763 11.6953 43.2279 11.8945 43.582 12.293C43.9388 12.6914 44.1172 13.2214 44.1172 13.8828V13.9336C44.1172 14.3451 44.0378 14.7148 43.8789 15.043C43.7227 15.3685 43.4974 15.6224 43.2031 15.8047C42.9115 15.987 42.5755 16.0781 42.1953 16.0781C41.6224 16.0781 41.1576 15.8789 40.8008 15.4805C40.4466 15.082 40.2695 14.5547 40.2695 13.8984V13.8477ZM40.9961 13.9336C40.9961 14.4023 41.1042 14.7786 41.3203 15.0625C41.5391 15.3464 41.8307 15.4883 42.1953 15.4883C42.5625 15.4883 42.8542 15.3451 43.0703 15.0586C43.2865 14.7695 43.3945 14.3659 43.3945 13.8477C43.3945 13.3841 43.2839 13.0091 43.0625 12.7227C42.8438 12.4336 42.5521 12.2891 42.1875 12.2891C41.8307 12.2891 41.543 12.431 41.3242 12.7148C41.1055 12.9987 40.9961 13.4049 40.9961 13.9336ZM47.6328 16C47.5911 15.9167 47.5573 15.7682 47.5312 15.5547C47.1953 15.9036 46.7943 16.0781 46.3281 16.0781C45.9115 16.0781 45.569 15.9609 45.3008 15.7266C45.0352 15.4896 44.9023 15.1901 44.9023 14.8281C44.9023 14.388 45.069 14.0469 45.4023 13.8047C45.7383 13.5599 46.2096 13.4375 46.8164 13.4375H47.5195V13.1055C47.5195 12.8529 47.444 12.6523 47.293 12.5039C47.1419 12.3529 46.9193 12.2773 46.625 12.2773C46.3672 12.2773 46.151 12.3424 45.9766 12.4727C45.8021 12.6029 45.7148 12.7604 45.7148 12.9453H44.9883C44.9883 12.7344 45.0625 12.5312 45.2109 12.3359C45.362 12.138 45.5651 11.9818 45.8203 11.8672C46.0781 11.7526 46.3607 11.6953 46.668 11.6953C47.1549 11.6953 47.5365 11.8177 47.8125 12.0625C48.0885 12.3047 48.2318 12.6393 48.2422 13.0664V15.0117C48.2422 15.3997 48.2917 15.7083 48.3906 15.9375V16H47.6328ZM46.4336 15.4492C46.6602 15.4492 46.875 15.3906 47.0781 15.2734C47.2812 15.1562 47.4284 15.0039 47.5195 14.8164V13.9492H46.9531C46.0677 13.9492 45.625 14.2083 45.625 14.7266C45.625 14.9531 45.7005 15.1302 45.8516 15.2578C46.0026 15.3854 46.1966 15.4492 46.4336 15.4492ZM51.418 12.4219C51.3086 12.4036 51.1901 12.3945 51.0625 12.3945C50.5885 12.3945 50.2669 12.5964 50.0977 13V16H49.375V11.7734H50.0781L50.0898 12.2617C50.3268 11.8841 50.6628 11.6953 51.0977 11.6953C51.2383 11.6953 51.3451 11.7135 51.418 11.75V12.4219ZM51.832 13.8516C51.832 13.2031 51.9857 12.6823 52.293 12.2891C52.6003 11.8932 53.0026 11.6953 53.5 11.6953C53.9948 11.6953 54.3867 11.8646 54.6758 12.2031V10H55.3984V16H54.7344L54.6992 15.5469C54.4102 15.901 54.0078 16.0781 53.4922 16.0781C53.0026 16.0781 52.6029 15.8776 52.293 15.4766C51.9857 15.0755 51.832 14.5521 51.832 13.9062V13.8516ZM52.5547 13.9336C52.5547 14.4128 52.6536 14.7878 52.8516 15.0586C53.0495 15.3294 53.3229 15.4648 53.6719 15.4648C54.1302 15.4648 54.4648 15.2591 54.6758 14.8477V12.9062C54.4596 12.5078 54.1276 12.3086 53.6797 12.3086C53.3255 12.3086 53.0495 12.4453 52.8516 12.7188C52.6536 12.9922 52.5547 13.3971 52.5547 13.9336Z" fill="#E5E5E5"/>
</svg>
