<svg width="55" height="26" viewBox="0 0 55 26" fill="none" xmlns="http://www.w3.org/2000/svg">
<rect width="55" height="26" rx="8" fill="#4B92FD"/>
<path d="M19.2422 15.4883C19.5 15.4883 19.7253 15.4102 19.918 15.2539C20.1107 15.0977 20.2174 14.9023 20.2383 14.668H20.9219C20.9089 14.9102 20.8255 15.1406 20.6719 15.3594C20.5182 15.5781 20.3125 15.7526 20.0547 15.8828C19.7995 16.013 19.5286 16.0781 19.2422 16.0781C18.6667 16.0781 18.2083 15.8867 17.8672 15.5039C17.5286 15.1185 17.3594 14.5924 17.3594 13.9258V13.8047C17.3594 13.3932 17.4349 13.0273 17.5859 12.707C17.737 12.3867 17.9531 12.138 18.2344 11.9609C18.5182 11.7839 18.8529 11.6953 19.2383 11.6953C19.7122 11.6953 20.1055 11.8372 20.418 12.1211C20.7331 12.4049 20.901 12.7734 20.9219 13.2266H20.2383C20.2174 12.9531 20.1133 12.7292 19.9258 12.5547C19.7409 12.3776 19.5117 12.2891 19.2383 12.2891C18.8711 12.2891 18.5859 12.4219 18.3828 12.6875C18.1823 12.9505 18.082 13.332 18.082 13.832V13.9688C18.082 14.4557 18.1823 14.8307 18.3828 15.0938C18.5833 15.3568 18.8698 15.4883 19.2422 15.4883ZM22.5195 16H21.7969V10H22.5195V16ZM23.4883 13.8477C23.4883 13.4336 23.569 13.0612 23.7305 12.7305C23.8945 12.3997 24.1211 12.1445 24.4102 11.9648C24.7018 11.7852 25.0339 11.6953 25.4062 11.6953C25.9818 11.6953 26.4466 11.8945 26.8008 12.293C27.1576 12.6914 27.3359 13.2214 27.3359 13.8828V13.9336C27.3359 14.3451 27.2565 14.7148 27.0977 15.043C26.9414 15.3685 26.7161 15.6224 26.4219 15.8047C26.1302 15.987 25.7943 16.0781 25.4141 16.0781C24.8411 16.0781 24.3763 15.8789 24.0195 15.4805C23.6654 15.082 23.4883 14.5547 23.4883 13.8984V13.8477ZM24.2148 13.9336C24.2148 14.4023 24.3229 14.7786 24.5391 15.0625C24.7578 15.3464 25.0495 15.4883 25.4141 15.4883C25.7812 15.4883 26.0729 15.3451 26.2891 15.0586C26.5052 14.7695 26.6133 14.3659 26.6133 13.8477C26.6133 13.3841 26.5026 13.0091 26.2812 12.7227C26.0625 12.4336 25.7708 12.2891 25.4062 12.2891C25.0495 12.2891 24.7617 12.431 24.543 12.7148C24.3242 12.9987 24.2148 13.4049 24.2148 13.9336ZM30.7031 14.8789C30.7031 14.6836 30.6289 14.5326 30.4805 14.4258C30.3346 14.3164 30.0781 14.2227 29.7109 14.1445C29.3464 14.0664 29.056 13.9727 28.8398 13.8633C28.6263 13.7539 28.4674 13.6237 28.3633 13.4727C28.2617 13.3216 28.2109 13.1419 28.2109 12.9336C28.2109 12.5872 28.3568 12.2943 28.6484 12.0547C28.9427 11.8151 29.3177 11.6953 29.7734 11.6953C30.2526 11.6953 30.6406 11.819 30.9375 12.0664C31.237 12.3138 31.3867 12.6302 31.3867 13.0156H30.6602C30.6602 12.8177 30.5755 12.6471 30.4062 12.5039C30.2396 12.3607 30.0286 12.2891 29.7734 12.2891C29.5104 12.2891 29.3047 12.3464 29.1562 12.4609C29.0078 12.5755 28.9336 12.7253 28.9336 12.9102C28.9336 13.0846 29.0026 13.2161 29.1406 13.3047C29.2786 13.3932 29.5273 13.4779 29.8867 13.5586C30.2487 13.6393 30.5417 13.7357 30.7656 13.8477C30.9896 13.9596 31.1549 14.0951 31.2617 14.2539C31.3711 14.4102 31.4258 14.6016 31.4258 14.8281C31.4258 15.2057 31.2747 15.5091 30.9727 15.7383C30.6706 15.9648 30.2786 16.0781 29.7969 16.0781C29.4583 16.0781 29.1589 16.0182 28.8984 15.8984C28.638 15.7786 28.4336 15.612 28.2852 15.3984C28.1393 15.1823 28.0664 14.9492 28.0664 14.6992H28.7891C28.8021 14.9414 28.8984 15.1341 29.0781 15.2773C29.2604 15.418 29.5 15.4883 29.7969 15.4883C30.0703 15.4883 30.2891 15.4336 30.4531 15.3242C30.6198 15.2122 30.7031 15.0638 30.7031 14.8789ZM34.1211 16.0781C33.5482 16.0781 33.082 15.8906 32.7227 15.5156C32.3633 15.138 32.1836 14.6341 32.1836 14.0039V13.8711C32.1836 13.4518 32.263 13.0781 32.4219 12.75C32.5833 12.4193 32.8073 12.1615 33.0938 11.9766C33.3828 11.7891 33.6953 11.6953 34.0312 11.6953C34.5807 11.6953 35.0078 11.8763 35.3125 12.2383C35.6172 12.6003 35.7695 13.1185 35.7695 13.793V14.0938H32.9062C32.9167 14.5104 33.0378 14.8477 33.2695 15.1055C33.5039 15.3607 33.8008 15.4883 34.1602 15.4883C34.4154 15.4883 34.6315 15.4362 34.8086 15.332C34.9857 15.2279 35.1406 15.0898 35.2734 14.918L35.7148 15.2617C35.3607 15.806 34.8294 16.0781 34.1211 16.0781ZM34.0312 12.2891C33.7396 12.2891 33.4948 12.3958 33.2969 12.6094C33.099 12.8203 32.9766 13.1172 32.9297 13.5H35.0469V13.4453C35.026 13.0781 34.9271 12.7943 34.75 12.5938C34.5729 12.3906 34.3333 12.2891 34.0312 12.2891Z" fill="#E5E5E5"/>
</svg>
