<svg width="55" height="26" viewBox="0 0 55 26" fill="none" xmlns="http://www.w3.org/2000/svg">
<rect width="55" height="26" rx="8" fill="#4B92FD"/>
<path d="M18.3008 16.0781C17.7279 16.0781 17.2617 15.8906 16.9023 15.5156C16.543 15.138 16.3633 14.6341 16.3633 14.0039V13.8711C16.3633 13.4518 16.4427 13.0781 16.6016 12.75C16.763 12.4193 16.987 12.1615 17.2734 11.9766C17.5625 11.7891 17.875 11.6953 18.2109 11.6953C18.7604 11.6953 19.1875 11.8763 19.4922 12.2383C19.7969 12.6003 19.9492 13.1185 19.9492 13.793V14.0938H17.0859C17.0964 14.5104 17.2174 14.8477 17.4492 15.1055C17.6836 15.3607 17.9805 15.4883 18.3398 15.4883C18.5951 15.4883 18.8112 15.4362 18.9883 15.332C19.1654 15.2279 19.3203 15.0898 19.4531 14.918L19.8945 15.2617C19.5404 15.806 19.0091 16.0781 18.3008 16.0781ZM18.2109 12.2891C17.9193 12.2891 17.6745 12.3958 17.4766 12.6094C17.2786 12.8203 17.1562 13.1172 17.1094 13.5H19.2266V13.4453C19.2057 13.0781 19.1068 12.7943 18.9297 12.5938C18.7526 12.3906 18.513 12.2891 18.2109 12.2891ZM22.832 12.4219C22.7227 12.4036 22.6042 12.3945 22.4766 12.3945C22.0026 12.3945 21.681 12.5964 21.5117 13V16H20.7891V11.7734H21.4922L21.5039 12.2617C21.7409 11.8841 22.0768 11.6953 22.5117 11.6953C22.6523 11.6953 22.7591 11.7135 22.832 11.75V12.4219ZM25.9531 16C25.9115 15.9167 25.8776 15.7682 25.8516 15.5547C25.5156 15.9036 25.1146 16.0781 24.6484 16.0781C24.2318 16.0781 23.8893 15.9609 23.6211 15.7266C23.3555 15.4896 23.2227 15.1901 23.2227 14.8281C23.2227 14.388 23.3893 14.0469 23.7227 13.8047C24.0586 13.5599 24.5299 13.4375 25.1367 13.4375H25.8398V13.1055C25.8398 12.8529 25.7643 12.6523 25.6133 12.5039C25.4622 12.3529 25.2396 12.2773 24.9453 12.2773C24.6875 12.2773 24.4714 12.3424 24.2969 12.4727C24.1224 12.6029 24.0352 12.7604 24.0352 12.9453H23.3086C23.3086 12.7344 23.3828 12.5312 23.5312 12.3359C23.6823 12.138 23.8854 11.9818 24.1406 11.8672C24.3984 11.7526 24.681 11.6953 24.9883 11.6953C25.4753 11.6953 25.8568 11.8177 26.1328 12.0625C26.4089 12.3047 26.5521 12.6393 26.5625 13.0664V15.0117C26.5625 15.3997 26.612 15.7083 26.7109 15.9375V16H25.9531ZM24.7539 15.4492C24.9805 15.4492 25.1953 15.3906 25.3984 15.2734C25.6016 15.1562 25.7487 15.0039 25.8398 14.8164V13.9492H25.2734C24.388 13.9492 23.9453 14.2083 23.9453 14.7266C23.9453 14.9531 24.0208 15.1302 24.1719 15.2578C24.3229 15.3854 24.5169 15.4492 24.7539 15.4492ZM30.1562 14.8789C30.1562 14.6836 30.082 14.5326 29.9336 14.4258C29.7878 14.3164 29.5312 14.2227 29.1641 14.1445C28.7995 14.0664 28.5091 13.9727 28.293 13.8633C28.0794 13.7539 27.9206 13.6237 27.8164 13.4727C27.7148 13.3216 27.6641 13.1419 27.6641 12.9336C27.6641 12.5872 27.8099 12.2943 28.1016 12.0547C28.3958 11.8151 28.7708 11.6953 29.2266 11.6953C29.7057 11.6953 30.0938 11.819 30.3906 12.0664C30.6901 12.3138 30.8398 12.6302 30.8398 13.0156H30.1133C30.1133 12.8177 30.0286 12.6471 29.8594 12.5039C29.6927 12.3607 29.4818 12.2891 29.2266 12.2891C28.9635 12.2891 28.7578 12.3464 28.6094 12.4609C28.4609 12.5755 28.3867 12.7253 28.3867 12.9102C28.3867 13.0846 28.4557 13.2161 28.5938 13.3047C28.7318 13.3932 28.9805 13.4779 29.3398 13.5586C29.7018 13.6393 29.9948 13.7357 30.2188 13.8477C30.4427 13.9596 30.6081 14.0951 30.7148 14.2539C30.8242 14.4102 30.8789 14.6016 30.8789 14.8281C30.8789 15.2057 30.7279 15.5091 30.4258 15.7383C30.1237 15.9648 29.7318 16.0781 29.25 16.0781C28.9115 16.0781 28.612 16.0182 28.3516 15.8984C28.0911 15.7786 27.8867 15.612 27.7383 15.3984C27.5924 15.1823 27.5195 14.9492 27.5195 14.6992H28.2422C28.2552 14.9414 28.3516 15.1341 28.5312 15.2773C28.7135 15.418 28.9531 15.4883 29.25 15.4883C29.5234 15.4883 29.7422 15.4336 29.9062 15.3242C30.0729 15.2122 30.1562 15.0638 30.1562 14.8789ZM33.5742 16.0781C33.0013 16.0781 32.5352 15.8906 32.1758 15.5156C31.8164 15.138 31.6367 14.6341 31.6367 14.0039V13.8711C31.6367 13.4518 31.7161 13.0781 31.875 12.75C32.0365 12.4193 32.2604 12.1615 32.5469 11.9766C32.8359 11.7891 33.1484 11.6953 33.4844 11.6953C34.0339 11.6953 34.4609 11.8763 34.7656 12.2383C35.0703 12.6003 35.2227 13.1185 35.2227 13.793V14.0938H32.3594C32.3698 14.5104 32.4909 14.8477 32.7227 15.1055C32.957 15.3607 33.2539 15.4883 33.6133 15.4883C33.8685 15.4883 34.0846 15.4362 34.2617 15.332C34.4388 15.2279 34.5938 15.0898 34.7266 14.918L35.168 15.2617C34.8138 15.806 34.2826 16.0781 33.5742 16.0781ZM33.4844 12.2891C33.1927 12.2891 32.9479 12.3958 32.75 12.6094C32.5521 12.8203 32.4297 13.1172 32.3828 13.5H34.5V13.4453C34.4792 13.0781 34.3802 12.7943 34.2031 12.5938C34.026 12.3906 33.7865 12.2891 33.4844 12.2891ZM38.1055 12.4219C37.9961 12.4036 37.8776 12.3945 37.75 12.3945C37.276 12.3945 36.9544 12.5964 36.7852 13V16H36.0625V11.7734H36.7656L36.7773 12.2617C37.0143 11.8841 37.3503 11.6953 37.7852 11.6953C37.9258 11.6953 38.0326 11.7135 38.1055 11.75V12.4219Z" fill="#E5E5E5"/>
</svg>
