<svg width="191" height="51" viewBox="0 0 191 51" fill="none" xmlns="http://www.w3.org/2000/svg">
<rect width="191" height="51" rx="10" fill="#4B92FD"/>
<path d="M86.0938 33H83.832L75.2422 19.8516V33H72.9805V15.9375H75.2422L83.8555 29.1445V15.9375H86.0938V33ZM95.0117 33.2344C93.293 33.2344 91.8945 32.6719 90.8164 31.5469C89.7383 30.4141 89.1992 28.9023 89.1992 27.0117V26.6133C89.1992 25.3555 89.4375 24.2344 89.9141 23.25C90.3984 22.2578 91.0703 21.4844 91.9297 20.9297C92.7969 20.3672 93.7344 20.0859 94.7422 20.0859C96.3906 20.0859 97.6719 20.6289 98.5859 21.7148C99.5 22.8008 99.957 24.3555 99.957 26.3789V27.2812H91.3672C91.3984 28.5312 91.7617 29.543 92.457 30.3164C93.1602 31.082 94.0508 31.4648 95.1289 31.4648C95.8945 31.4648 96.543 31.3086 97.0742 30.9961C97.6055 30.6836 98.0703 30.2695 98.4688 29.7539L99.793 30.7852C98.7305 32.418 97.1367 33.2344 95.0117 33.2344ZM94.7422 21.8672C93.8672 21.8672 93.1328 22.1875 92.5391 22.8281C91.9453 23.4609 91.5781 24.3516 91.4375 25.5H97.7891V25.3359C97.7266 24.2344 97.4297 23.3828 96.8984 22.7812C96.3672 22.1719 95.6484 21.8672 94.7422 21.8672ZM106.73 24.9492L109.543 20.3203H112.074L107.926 26.5898L112.203 33H109.695L106.766 28.2539L103.836 33H101.316L105.594 26.5898L101.445 20.3203H103.953L106.73 24.9492ZM117.324 17.25V20.3203H119.691V21.9961H117.324V29.8594C117.324 30.3672 117.43 30.75 117.641 31.0078C117.852 31.2578 118.211 31.3828 118.719 31.3828C118.969 31.3828 119.312 31.3359 119.75 31.2422V33C119.18 33.1562 118.625 33.2344 118.086 33.2344C117.117 33.2344 116.387 32.9414 115.895 32.3555C115.402 31.7695 115.156 30.9375 115.156 29.8594V21.9961H112.848V20.3203H115.156V17.25H117.324Z" fill="white"/>
</svg>
