<svg width="55" height="26" viewBox="0 0 55 26" fill="none" xmlns="http://www.w3.org/2000/svg">
<rect width="55" height="26" rx="8" fill="#4B92FD"/>
<path d="M24.1172 13.9336C24.1172 14.5768 23.9701 15.0951 23.6758 15.4883C23.3815 15.8815 22.9831 16.0781 22.4805 16.0781C21.9674 16.0781 21.5638 15.9154 21.2695 15.5898V17.625H20.5469V11.7734H21.207L21.2422 12.2422C21.5365 11.8776 21.9453 11.6953 22.4688 11.6953C22.9766 11.6953 23.3776 11.8867 23.6719 12.2695C23.9688 12.6523 24.1172 13.1849 24.1172 13.8672V13.9336ZM23.3945 13.8516C23.3945 13.375 23.293 12.9987 23.0898 12.7227C22.8867 12.4466 22.6081 12.3086 22.2539 12.3086C21.8164 12.3086 21.4883 12.5026 21.2695 12.8906V14.9102C21.4857 15.2956 21.8164 15.4883 22.2617 15.4883C22.6081 15.4883 22.8828 15.3516 23.0859 15.0781C23.2917 14.8021 23.3945 14.3932 23.3945 13.8516ZM26.793 16.0781C26.2201 16.0781 25.7539 15.8906 25.3945 15.5156C25.0352 15.138 24.8555 14.6341 24.8555 14.0039V13.8711C24.8555 13.4518 24.9349 13.0781 25.0938 12.75C25.2552 12.4193 25.4792 12.1615 25.7656 11.9766C26.0547 11.7891 26.3672 11.6953 26.7031 11.6953C27.2526 11.6953 27.6797 11.8763 27.9844 12.2383C28.2891 12.6003 28.4414 13.1185 28.4414 13.793V14.0938H25.5781C25.5885 14.5104 25.7096 14.8477 25.9414 15.1055C26.1758 15.3607 26.4727 15.4883 26.832 15.4883C27.0872 15.4883 27.3034 15.4362 27.4805 15.332C27.6576 15.2279 27.8125 15.0898 27.9453 14.918L28.3867 15.2617C28.0326 15.806 27.5013 16.0781 26.793 16.0781ZM26.7031 12.2891C26.4115 12.2891 26.1667 12.3958 25.9688 12.6094C25.7708 12.8203 25.6484 13.1172 25.6016 13.5H27.7188V13.4453C27.6979 13.0781 27.599 12.7943 27.4219 12.5938C27.2448 12.3906 27.0052 12.2891 26.7031 12.2891ZM29.9648 11.7734L29.9883 12.3047C30.3112 11.8984 30.7331 11.6953 31.2539 11.6953C32.1471 11.6953 32.5977 12.1992 32.6055 13.207V16H31.8828V13.2031C31.8802 12.8984 31.8099 12.6732 31.6719 12.5273C31.5365 12.3815 31.3242 12.3086 31.0352 12.3086C30.8008 12.3086 30.5951 12.3711 30.418 12.4961C30.2409 12.6211 30.1029 12.7852 30.0039 12.9883V16H29.2812V11.7734H29.9648Z" fill="#E5E5E5"/>
</svg>
