<svg width="191" height="51" viewBox="0 0 191 51" fill="none" xmlns="http://www.w3.org/2000/svg">
<rect width="191" height="51" rx="10" fill="#4B92FD"/>
<path d="M65.0078 25.3945C63.0781 24.8398 61.6719 24.1602 60.7891 23.3555C59.9141 22.543 59.4766 21.543 59.4766 20.3555C59.4766 19.0117 60.0117 17.9023 61.082 17.0273C62.1602 16.1445 63.5586 15.7031 65.2773 15.7031C66.4492 15.7031 67.4922 15.9297 68.4062 16.3828C69.3281 16.8359 70.0391 17.4609 70.5391 18.2578C71.0469 19.0547 71.3008 19.9258 71.3008 20.8711H69.0391C69.0391 19.8398 68.7109 19.0312 68.0547 18.4453C67.3984 17.8516 66.4727 17.5547 65.2773 17.5547C64.168 17.5547 63.3008 17.8008 62.6758 18.293C62.0586 18.7773 61.75 19.4531 61.75 20.3203C61.75 21.0156 62.043 21.6055 62.6289 22.0898C63.2227 22.5664 64.2266 23.0039 65.6406 23.4023C67.0625 23.8008 68.1719 24.2422 68.9688 24.7266C69.7734 25.2031 70.3672 25.7617 70.75 26.4023C71.1406 27.043 71.3359 27.7969 71.3359 28.6641C71.3359 30.0469 70.7969 31.1562 69.7188 31.9922C68.6406 32.8203 67.1992 33.2344 65.3945 33.2344C64.2227 33.2344 63.1289 33.0117 62.1133 32.5664C61.0977 32.1133 60.3125 31.4961 59.7578 30.7148C59.2109 29.9336 58.9375 29.0469 58.9375 28.0547H61.1992C61.1992 29.0859 61.5781 29.9023 62.3359 30.5039C63.1016 31.0977 64.1211 31.3945 65.3945 31.3945C66.582 31.3945 67.4922 31.1523 68.125 30.668C68.7578 30.1836 69.0742 29.5234 69.0742 28.6875C69.0742 27.8516 68.7812 27.207 68.1953 26.7539C67.6094 26.293 66.5469 25.8398 65.0078 25.3945ZM81.7188 31.7461C80.875 32.7383 79.6367 33.2344 78.0039 33.2344C76.6523 33.2344 75.6211 32.8438 74.9102 32.0625C74.207 31.2734 73.8516 30.1094 73.8438 28.5703V20.3203H76.0117V28.5117C76.0117 30.4336 76.793 31.3945 78.3555 31.3945C80.0117 31.3945 81.1133 30.7773 81.6602 29.543V20.3203H83.8281V33H81.7656L81.7188 31.7461ZM97.8672 26.8008C97.8672 28.7383 97.4219 30.2969 96.5312 31.4766C95.6406 32.6484 94.4453 33.2344 92.9453 33.2344C91.3438 33.2344 90.1055 32.668 89.2305 31.5352L89.125 33H87.1328V15H89.3008V21.7148C90.1758 20.6289 91.3828 20.0859 92.9219 20.0859C94.4609 20.0859 95.668 20.668 96.543 21.832C97.4258 22.9961 97.8672 24.5898 97.8672 26.6133V26.8008ZM95.6992 26.5547C95.6992 25.0781 95.4141 23.9375 94.8438 23.1328C94.2734 22.3281 93.4531 21.9258 92.3828 21.9258C90.9531 21.9258 89.9258 22.5898 89.3008 23.918V29.4023C89.9648 30.7305 91 31.3945 92.4062 31.3945C93.4453 31.3945 94.2539 30.9922 94.832 30.1875C95.4102 29.3828 95.6992 28.1719 95.6992 26.5547ZM102.648 20.3203L102.707 21.7266C103.637 20.6328 104.891 20.0859 106.469 20.0859C108.242 20.0859 109.449 20.7656 110.09 22.125C110.512 21.5156 111.059 21.0234 111.73 20.6484C112.41 20.2734 113.211 20.0859 114.133 20.0859C116.914 20.0859 118.328 21.5586 118.375 24.5039V33H116.207V24.6328C116.207 23.7266 116 23.0508 115.586 22.6055C115.172 22.1523 114.477 21.9258 113.5 21.9258C112.695 21.9258 112.027 22.168 111.496 22.6523C110.965 23.1289 110.656 23.7734 110.57 24.5859V33H108.391V24.6914C108.391 22.8477 107.488 21.9258 105.684 21.9258C104.262 21.9258 103.289 22.5312 102.766 23.7422V33H100.598V20.3203H102.648ZM124.012 33H121.844V20.3203H124.012V33ZM121.668 16.957C121.668 16.6055 121.773 16.3086 121.984 16.0664C122.203 15.8242 122.523 15.7031 122.945 15.7031C123.367 15.7031 123.688 15.8242 123.906 16.0664C124.125 16.3086 124.234 16.6055 124.234 16.957C124.234 17.3086 124.125 17.6016 123.906 17.8359C123.688 18.0703 123.367 18.1875 122.945 18.1875C122.523 18.1875 122.203 18.0703 121.984 17.8359C121.773 17.6016 121.668 17.3086 121.668 16.957ZM130.434 17.25V20.3203H132.801V21.9961H130.434V29.8594C130.434 30.3672 130.539 30.75 130.75 31.0078C130.961 31.2578 131.32 31.3828 131.828 31.3828C132.078 31.3828 132.422 31.3359 132.859 31.2422V33C132.289 33.1562 131.734 33.2344 131.195 33.2344C130.227 33.2344 129.496 32.9414 129.004 32.3555C128.512 31.7695 128.266 30.9375 128.266 29.8594V21.9961H125.957V20.3203H128.266V17.25H130.434Z" fill="white"/>
</svg>
