<svg width="386" height="696" viewBox="0 0 386 696" fill="none" xmlns="http://www.w3.org/2000/svg">
<rect width="386" height="696" rx="30" fill="#8D8D8D"/>
<path d="M17 81C17 64.4315 30.4315 51 47 51H340C356.569 51 370 64.4315 370 81V648C370 664.569 356.569 678 340 678H47C30.4315 678 17 664.569 17 648V81Z" fill="white"/>
<path d="M267.144 72.7382C265.874 71.4593 264.365 70.4431 262.703 69.7474C261.041 69.0518 259.258 68.6904 257.456 68.6838C255.654 68.6772 253.868 69.0257 252.201 69.7092C250.533 70.3927 249.017 71.398 247.738 72.6675L257.406 82.4057L267.144 72.7382Z" fill="#3F3F3F"/>
<path d="M283 81.5H272L283 69V81.5Z" fill="#3F3F3F" stroke="#3F3F3F"/>
<rect x="295" y="66.9286" width="9" height="16.0714" rx="2" fill="#3F3F3F"/>
<rect x="298.214" y="65.6429" width="2.57143" height="1.92857" fill="#3F3F3F"/>
<path d="M318.285 75.207H319.1C319.611 75.1992 320.014 75.0645 320.307 74.8027C320.6 74.541 320.746 74.1875 320.746 73.7422C320.746 72.7422 320.248 72.2422 319.252 72.2422C318.783 72.2422 318.408 72.377 318.127 72.6465C317.85 72.9121 317.711 73.2656 317.711 73.707H316.627C316.627 73.0312 316.873 72.4707 317.365 72.0254C317.861 71.5762 318.49 71.3516 319.252 71.3516C320.057 71.3516 320.688 71.5645 321.145 71.9902C321.602 72.416 321.83 73.0078 321.83 73.7656C321.83 74.1367 321.709 74.4961 321.467 74.8438C321.229 75.1914 320.902 75.4512 320.488 75.623C320.957 75.7715 321.318 76.0176 321.572 76.3613C321.83 76.7051 321.959 77.125 321.959 77.6211C321.959 78.3867 321.709 78.9941 321.209 79.4434C320.709 79.8926 320.059 80.1172 319.258 80.1172C318.457 80.1172 317.805 79.9004 317.301 79.4668C316.801 79.0332 316.551 78.4609 316.551 77.75H317.641C317.641 78.1992 317.787 78.5586 318.08 78.8281C318.373 79.0977 318.766 79.2324 319.258 79.2324C319.781 79.2324 320.182 79.0957 320.459 78.8223C320.736 78.5488 320.875 78.1562 320.875 77.6445C320.875 77.1484 320.723 76.7676 320.418 76.502C320.113 76.2363 319.674 76.0996 319.1 76.0918H318.285V75.207ZM323.523 79.4316C323.523 79.2441 323.578 79.0879 323.688 78.9629C323.801 78.8379 323.969 78.7754 324.191 78.7754C324.414 78.7754 324.582 78.8379 324.695 78.9629C324.812 79.0879 324.871 79.2441 324.871 79.4316C324.871 79.6113 324.812 79.7617 324.695 79.8828C324.582 80.0039 324.414 80.0645 324.191 80.0645C323.969 80.0645 323.801 80.0039 323.688 79.8828C323.578 79.7617 323.523 79.6113 323.523 79.4316ZM323.529 74.2578C323.529 74.0703 323.584 73.9141 323.693 73.7891C323.807 73.6641 323.975 73.6016 324.197 73.6016C324.42 73.6016 324.588 73.6641 324.701 73.7891C324.818 73.9141 324.877 74.0703 324.877 74.2578C324.877 74.4375 324.818 74.5879 324.701 74.709C324.588 74.8301 324.42 74.8906 324.197 74.8906C323.975 74.8906 323.807 74.8301 323.693 74.709C323.584 74.5879 323.529 74.4375 323.529 74.2578ZM331.703 76.3613C331.703 77.6309 331.486 78.5742 331.053 79.1914C330.619 79.8086 329.941 80.1172 329.02 80.1172C328.109 80.1172 327.436 79.8164 326.998 79.2148C326.561 78.6094 326.334 77.707 326.318 76.5078V75.0605C326.318 73.8066 326.535 72.875 326.969 72.2656C327.402 71.6562 328.082 71.3516 329.008 71.3516C329.926 71.3516 330.602 71.6465 331.035 72.2363C331.469 72.8223 331.691 73.7285 331.703 74.9551V76.3613ZM330.619 74.8789C330.619 73.9609 330.49 73.293 330.232 72.875C329.975 72.4531 329.566 72.2422 329.008 72.2422C328.453 72.2422 328.049 72.4512 327.795 72.8691C327.541 73.2871 327.41 73.9297 327.402 74.7969V76.5312C327.402 77.4531 327.535 78.1348 327.801 78.5762C328.07 79.0137 328.477 79.2324 329.02 79.2324C329.555 79.2324 329.951 79.0254 330.209 78.6113C330.471 78.1973 330.607 77.5449 330.619 76.6543V74.8789ZM334.668 75.207H335.482C335.994 75.1992 336.396 75.0645 336.689 74.8027C336.982 74.541 337.129 74.1875 337.129 73.7422C337.129 72.7422 336.631 72.2422 335.635 72.2422C335.166 72.2422 334.791 72.377 334.51 72.6465C334.232 72.9121 334.094 73.2656 334.094 73.707H333.01C333.01 73.0312 333.256 72.4707 333.748 72.0254C334.244 71.5762 334.873 71.3516 335.635 71.3516C336.439 71.3516 337.07 71.5645 337.527 71.9902C337.984 72.416 338.213 73.0078 338.213 73.7656C338.213 74.1367 338.092 74.4961 337.85 74.8438C337.611 75.1914 337.285 75.4512 336.871 75.623C337.34 75.7715 337.701 76.0176 337.955 76.3613C338.213 76.7051 338.342 77.125 338.342 77.6211C338.342 78.3867 338.092 78.9941 337.592 79.4434C337.092 79.8926 336.441 80.1172 335.641 80.1172C334.84 80.1172 334.188 79.9004 333.684 79.4668C333.184 79.0332 332.934 78.4609 332.934 77.75H334.023C334.023 78.1992 334.17 78.5586 334.463 78.8281C334.756 79.0977 335.148 79.2324 335.641 79.2324C336.164 79.2324 336.564 79.0957 336.842 78.8223C337.119 78.5488 337.258 78.1562 337.258 77.6445C337.258 77.1484 337.105 76.7676 336.801 76.502C336.496 76.2363 336.057 76.0996 335.482 76.0918H334.668V75.207Z" fill="#3F3F3F"/>
<circle cx="45.5" cy="31.5" r="8.5" fill="#C4C4C4"/>
<rect x="81" y="23" width="247" height="12" rx="6" fill="#C4C4C4"/>
</svg>
