<svg width="41" height="26" viewBox="0 0 41 26" fill="none" xmlns="http://www.w3.org/2000/svg">
<path d="M16.1797 4.85938H12.5234V15H11.0312V4.85938H7.38281V3.625H16.1797V4.85938ZM21.9688 15C21.8854 14.8333 21.8177 14.5365 21.7656 14.1094C21.0938 14.8073 20.2917 15.1562 19.3594 15.1562C18.526 15.1562 17.8411 14.9219 17.3047 14.4531C16.7734 13.9792 16.5078 13.3802 16.5078 12.6562C16.5078 11.776 16.8411 11.0938 17.5078 10.6094C18.1797 10.1198 19.1224 9.875 20.3359 9.875H21.7422V9.21094C21.7422 8.70573 21.5911 8.30469 21.2891 8.00781C20.987 7.70573 20.5417 7.55469 19.9531 7.55469C19.4375 7.55469 19.0052 7.6849 18.6562 7.94531C18.3073 8.20573 18.1328 8.52083 18.1328 8.89062H16.6797C16.6797 8.46875 16.8281 8.0625 17.125 7.67188C17.4271 7.27604 17.8333 6.96354 18.3438 6.73438C18.8594 6.50521 19.4245 6.39062 20.0391 6.39062C21.013 6.39062 21.776 6.63542 22.3281 7.125C22.8802 7.60938 23.1667 8.27865 23.1875 9.13281V13.0234C23.1875 13.7995 23.2865 14.4167 23.4844 14.875V15H21.9688ZM19.5703 13.8984C20.0234 13.8984 20.4531 13.7812 20.8594 13.5469C21.2656 13.3125 21.5599 13.0078 21.7422 12.6328V10.8984H20.6094C18.8385 10.8984 17.9531 11.4167 17.9531 12.4531C17.9531 12.9062 18.1042 13.2604 18.4062 13.5156C18.7083 13.7708 19.0964 13.8984 19.5703 13.8984ZM32.6094 10.8672C32.6094 12.1589 32.3125 13.1979 31.7188 13.9844C31.125 14.7656 30.3281 15.1562 29.3281 15.1562C28.2604 15.1562 27.4349 14.7786 26.8516 14.0234L26.7812 15H25.4531V3H26.8984V7.47656C27.4818 6.7526 28.2865 6.39062 29.3125 6.39062C30.3385 6.39062 31.1432 6.77865 31.7266 7.55469C32.3151 8.33073 32.6094 9.39323 32.6094 10.7422V10.8672ZM31.1641 10.7031C31.1641 9.71875 30.974 8.95833 30.5938 8.42188C30.2135 7.88542 29.6667 7.61719 28.9531 7.61719C28 7.61719 27.3151 8.0599 26.8984 8.94531V12.6016C27.3411 13.487 28.0312 13.9297 28.9688 13.9297C29.6615 13.9297 30.2005 13.6615 30.5859 13.125C30.9714 12.5885 31.1641 11.7812 31.1641 10.7031Z" fill="#4B92FD"/>
<line y1="24.5" x2="41" y2="24.5" stroke="#4B92FD" stroke-width="3"/>
</svg>
